<svg width="154" height="170" viewBox="0 0 154 170" fill="none" xmlns="http://www.w3.org/2000/svg">
<rect y="22" width="154" height="148" fill="#C4C4C4"/>
<path d="M103.208 116.632H46.472L34.376 145H27.896L71.96 42.472H77.864L121.928 145H115.448L103.208 116.632ZM100.76 110.872L74.84 50.392L48.92 110.872H100.76Z" fill="#4A4A4A"/>
<path d="M135.514 40V49H134.794V47.29C134.506 47.878 134.086 48.334 133.534 48.658C132.994 48.97 132.382 49.126 131.698 49.126C130.666 49.126 129.88 48.838 129.34 48.262C128.8 47.674 128.53 46.816 128.53 45.688V40H129.268V45.616C129.268 46.564 129.46 47.266 129.844 47.722C130.24 48.166 130.84 48.388 131.644 48.388C132.592 48.388 133.348 48.094 133.912 47.506C134.488 46.906 134.776 46.114 134.776 45.13V40H135.514Z" fill="black"/>
<path d="M132.454 57.784C134.638 57.784 135.73 58.924 135.73 61.204V67H134.974V61.276C134.974 60.316 134.776 59.614 134.38 59.17C133.996 58.726 133.378 58.504 132.526 58.504C131.554 58.504 130.774 58.798 130.186 59.386C129.61 59.974 129.322 60.766 129.322 61.762V67H128.584V60.484C128.584 59.548 128.536 58.72 128.44 58H129.16L129.286 59.71C129.538 59.086 129.946 58.612 130.51 58.288C131.074 57.952 131.722 57.784 132.454 57.784Z" fill="black"/>
<path d="M135.91 71.752V85H135.154V83.2C134.89 83.824 134.482 84.304 133.93 84.64C133.39 84.964 132.742 85.126 131.986 85.126C131.194 85.126 130.492 84.934 129.88 84.55C129.28 84.154 128.812 83.602 128.476 82.894C128.14 82.174 127.972 81.346 127.972 80.41C127.972 79.486 128.134 78.676 128.458 77.98C128.794 77.272 129.262 76.732 129.862 76.36C130.474 75.976 131.182 75.784 131.986 75.784C132.742 75.784 133.39 75.946 133.93 76.27C134.482 76.594 134.89 77.068 135.154 77.692V71.752H135.91ZM131.986 84.388C132.994 84.388 133.774 84.046 134.326 83.362C134.878 82.666 135.154 81.694 135.154 80.446C135.154 79.198 134.878 78.232 134.326 77.548C133.774 76.864 133 76.522 132.004 76.522C130.996 76.522 130.204 76.864 129.628 77.548C129.064 78.22 128.782 79.174 128.782 80.41C128.782 81.658 129.064 82.636 129.628 83.344C130.204 84.04 130.99 84.388 131.986 84.388Z" fill="black"/>
<path d="M134.166 93.784C134.502 93.784 134.754 93.802 134.922 93.838L134.868 94.522C134.724 94.498 134.484 94.486 134.148 94.486C133.488 94.486 132.948 94.642 132.528 94.954C132.108 95.254 131.802 95.644 131.61 96.124C131.418 96.592 131.322 97.084 131.322 97.6V103H130.584V96.484C130.584 95.548 130.536 94.72 130.44 94H131.16L131.286 95.692C131.526 95.068 131.898 94.594 132.402 94.27C132.918 93.946 133.506 93.784 134.166 93.784Z" fill="black"/>
<path d="M93 39L143 145V39" stroke="black"/>
<path d="M143 144.5V161H10V31.5H14V157H122.5" stroke="black"/>
</svg>
